<?xml version="1.0" standalone="no"?>
<!DOCTYPE svg PUBLIC "-//W3C//DTD SVG 20010904//EN"
 "http://www.w3.org/TR/2001/REC-SVG-20010904/DTD/svg10.dtd">
<svg version="1.0" xmlns="http://www.w3.org/2000/svg"
 width="512.000000pt" height="512.000000pt" viewBox="0 0 512.000000 512.000000"
 preserveAspectRatio="xMidYMid meet">
<metadata>
Created by potrace 1.14, written by Peter Selinger 2001-2017
</metadata>
<g transform="translate(0.000000,512.000000) scale(0.100000,-0.100000)"
fill="#000000" stroke="none">
<path d="M2398 5115 c-2 -1 -27 -6 -56 -9 -251 -30 -485 -149 -688 -351 -194
-193 -301 -399 -350 -675 -21 -120 -8 -381 25 -510 108 -415 469 -776 874
-874 131 -32 196 -40 332 -38 159 1 245 15 380 58 343 111 646 407 770 752 80
224 92 503 31 738 -51 197 -155 378 -308 535 -193 199 -404 313 -668 361 -49
9 -334 20 -342 13z"/>
<path d="M1447 2644 c-1 -1 -24 -5 -52 -8 -183 -24 -380 -117 -511 -242 -177
-170 -328 -472 -390 -779 -12 -57 -34 -185 -40 -220 -3 -22 -7 -51 -9 -65 -11
-63 -20 -240 -20 -395 0 -168 6 -239 24 -303 5 -18 10 -33 10 -35 0 -6 15 -48
37 -103 87 -216 307 -399 548 -459 38 -9 79 -20 90 -23 12 -4 638 -7 1391 -9
1154 -2 1383 0 1450 12 385 70 624 303 703 685 9 47 9 425 -1 525 -11 112 -16
156 -23 187 -3 15 -7 39 -9 55 -4 32 -12 76 -20 113 -3 14 -8 36 -11 50 -37
186 -129 414 -228 569 -184 286 -468 444 -801 445 -83 0 -107 -11 -298 -133
-192 -123 -248 -151 -412 -206 -181 -60 -412 -64 -599 -10 -179 52 -244 83
-461 221 -180 115 -211 128 -297 129 -38 0 -70 0 -71 -1z"/>
</g>
</svg>
